<svg xmlns="http://www.w3.org/2000/svg" width="82" height="82" viewBox="0 0 82 82">
  <path d="M41 1C27.2 1 16 12.2 16 26c0 25 25 45 25 45s25-20 25-45C66 12.2 54.8 1 41 1zm0 40.3c-8.5 0-15.3-6.8-15.3-15.3S32.5 10.7 41 10.7 56.3 17.5 56.3 26 49.5 41.3 41 41.3zM31.3 26c0 5.4 4.3 9.7 9.7 9.7 5.4 0 9.7-4.3 9.7-9.7 0-5.4-4.3-9.7-9.7-9.7-5.4 0-9.7 4.3-9.7 9.7zm31 29.5c-1 1.7-2 3.4-3.3 5 .2 0 .4 0 .6.2 3.8 2 5.5 4 5.5 5.3 0 1.3-1 3.4-5 5.3-5 2.4-12 3.7-19 3.7s-13.5-1.3-18.3-3.7c-3.8-2-5.5-4-5.5-5.3 0-1.3 1.4-3.4 5-5.3l.8-.3c-1.3-1.5-2.4-3.2-3.5-5-5 3-8.3 6.6-8.3 10.6 0 8.3 13.2 15 30 15s30-6.7 30-15c0-4-3.5-7.8-8.8-10.5z" fill="#6b83d7"/>
</svg>